M48
; DRILL file {KiCad (5.1.2)-2} date 11/25/2019 10:07:53 PM
; FORMAT={-:-/ absolute / inch / decimal}
; #@! TF.CreationDate,2019-11-25T22:07:53-06:00
; #@! TF.GenerationSoftware,Kicad,Pcbnew,(5.1.2)-2
; #@! TF.FileFunction,Plated,1,2,PTH
FMAT,2
INCH
T1C0.0276
T2C0.0504
T3C0.0984
%
G90
G05
T1
X4.75Y-3.75
X4.75Y-4.05
X5.75Y-3.75
X5.75Y-4.05
X6.65Y-3.75
X6.65Y-4.05
X5.35Y-3.75
X5.35Y-4.05
X6.05Y-3.75
X6.05Y-4.05
X6.75Y-2.65
X6.75Y-2.95
X6.5Y-2.95
X6.5Y-3.0287
X4.45Y-3.75
X4.45Y-4.05
X6.35Y-3.75
X6.35Y-4.05
X5.05Y-3.75
X5.05Y-4.05
T2
X5.35Y-2.7
X5.35Y-2.8
X5.35Y-2.9
X5.05Y-2.7
X5.05Y-2.8
X5.05Y-2.9
X4.45Y-2.7
X4.45Y-2.8
X4.45Y-2.9
X4.75Y-2.7
X4.75Y-2.8
X4.75Y-2.9
T3
X5.75Y-2.7
X6.05Y-2.7
X6.35Y-2.7
X4.45Y-3.3
X4.75Y-3.3
X5.05Y-3.3
X5.35Y-3.3
X5.75Y-3.3
X6.05Y-3.3
X6.35Y-3.3
X6.65Y-3.3
T0
M30
